<svg width="24" height="24" viewBox="0 0 24 24" fill="none" xmlns="http://www.w3.org/2000/svg">
<path d="M10.5998 3.59999C9.5316 3.59999 8.5348 3.89819 7.685 4.41759C7.59717 3.94777 7.43707 3.49439 7.2104 3.07359C8.27622 2.48377 9.4775 2.18229 10.6955 2.19895C11.9135 2.2156 13.1061 2.54982 14.1554 3.16856C15.2047 3.7873 16.0744 4.66915 16.6784 5.72694C17.2825 6.78474 17.6001 7.98186 17.5998 9.19999H21.1012C21.6579 9.20036 22.1917 9.42178 22.5852 9.81556C22.9787 10.2093 23.1998 10.7433 23.1998 11.3V19.7C23.1998 20.2569 22.9786 20.7911 22.5847 21.1849C22.1909 21.5787 21.6568 21.8 21.0998 21.8H12.6998C12.1428 21.8 11.6087 21.5787 11.2149 21.1849C10.8211 20.7911 10.5998 20.2569 10.5998 19.7V16.2C9.62594 16.2012 8.66261 15.9985 7.7718 15.605C7.79 15.129 7.7998 14.6292 7.7998 14.1V14.051C8.623 14.527 9.5792 14.8 10.5998 14.8V11.3C10.5998 10.743 10.8211 10.2089 11.2149 9.81507C11.6087 9.42124 12.1428 9.19999 12.6998 9.19999H16.1998C16.1998 7.71478 15.6098 6.2904 14.5596 5.24019C13.5094 4.18999 12.085 3.59999 10.5998 3.59999ZM17.4598 10.6C17.1844 11.9448 16.5202 13.1791 15.5496 14.1497C14.5789 15.1204 13.3446 15.7846 11.9998 16.06V19.7C11.9998 19.8856 12.0736 20.0637 12.2048 20.195C12.3361 20.3262 12.5142 20.4 12.6998 20.4H21.0998C21.2855 20.4 21.4635 20.3262 21.5948 20.195C21.7261 20.0637 21.7998 19.8856 21.7998 19.7V11.3C21.7998 11.1143 21.7261 10.9363 21.5948 10.805C21.4635 10.6737 21.2855 10.6 21.0998 10.6H17.4598ZM16.0234 10.6H12.6998C12.5142 10.6 12.3361 10.6737 12.2048 10.805C12.0736 10.9363 11.9998 11.1143 11.9998 11.3V14.6236C12.9683 14.3727 13.8521 13.8673 14.5596 13.1598C15.2671 12.4523 15.7725 11.5685 16.0234 10.6ZM4.4132 0.974993C4.52941 1.07664 4.60875 1.21384 4.63888 1.36526C4.66901 1.51668 4.64824 1.67381 4.5798 1.81219C4.56795 1.85315 4.56183 1.89555 4.5616 1.93819C4.5616 2.02639 4.584 2.19439 4.7954 2.40439C4.8976 2.50659 4.976 2.57939 5.0614 2.65919C5.1314 2.72359 5.2056 2.79079 5.2994 2.88319C5.4814 3.05679 5.6732 3.26119 5.8454 3.51739C6.2024 4.05359 6.3998 4.72419 6.3998 5.69999C6.3998 6.89419 5.9574 7.91199 5.2672 8.53639L5.3568 8.63999C5.7488 9.12159 5.977 9.74599 6.1198 10.362C6.3998 11.58 6.3998 13.0444 6.3998 14.065V14.1C6.3998 18.0018 5.8692 20.2152 5.2854 21.4808C4.9914 22.1178 4.6792 22.5238 4.409 22.7786C4.29915 22.884 4.17802 22.9769 4.0478 23.0558C3.98818 23.0917 3.92594 23.123 3.8616 23.1496C3.8616 23.1496 3.7034 23.2 3.5998 23.2C3.4962 23.2 3.338 23.1496 3.338 23.1496C3.27297 23.1246 3.2106 23.0932 3.1518 23.0558C3.02159 22.9769 2.90046 22.884 2.7906 22.7786C2.5204 22.5224 2.2082 22.1178 1.9142 21.4808C1.3304 20.2152 0.799805 18.0018 0.799805 14.1V14.065C0.799805 13.043 0.799805 11.58 1.0798 10.362C1.2226 9.74599 1.4508 9.12159 1.8428 8.63999C1.8708 8.60499 1.9016 8.56999 1.9324 8.53639C1.2422 7.91199 0.799805 6.89419 0.799805 5.69999C0.799805 5.24359 0.921605 4.69899 1.0896 4.19639C1.2576 3.69239 1.4928 3.17159 1.7644 2.75159C2.0878 2.20559 2.5428 1.74779 2.8956 1.43979C3.08903 1.26969 3.29088 1.10942 3.5004 0.959593L3.5424 0.931593L3.555 0.921793L3.5592 0.918993L3.562 0.917593C3.69038 0.83202 3.84343 0.791255 3.99736 0.801636C4.15129 0.812016 4.29748 0.872959 4.4132 0.974993ZM3.5998 7.79999C4.1416 7.79859 4.9998 7.19799 4.9998 5.69999C4.9998 4.92579 4.8472 4.54639 4.6792 4.29439C4.57706 4.14721 4.45924 4.01154 4.3278 3.88979L4.1542 3.72739C4.0408 3.62099 3.9078 3.49779 3.8042 3.39559C3.65108 3.24407 3.51964 3.07211 3.4136 2.88459C3.2354 3.07197 3.07857 3.27857 2.946 3.50059C2.75 3.80159 2.5596 4.21459 2.4182 4.64019C2.2726 5.07419 2.1998 5.45779 2.1998 5.69999C2.1998 7.20079 3.0608 7.79999 3.5998 7.79999H3.6026H3.5998ZM2.9278 9.52479C2.729 9.76699 2.5638 10.1534 2.4434 10.677C2.2026 11.7242 2.1998 13.0402 2.1998 14.1C2.1998 17.8982 2.7192 19.8848 3.1854 20.8942C3.3394 21.226 3.4836 21.4472 3.5998 21.5942C3.76522 21.3781 3.90433 21.1431 4.0142 20.8942C4.4804 19.8848 4.9998 17.8982 4.9998 14.1C4.9998 13.0402 4.997 11.7242 4.7548 10.677C4.6344 10.1534 4.4692 9.76699 4.2718 9.52479C4.19458 9.42016 4.09304 9.33591 3.97596 9.27931C3.85887 9.22272 3.72977 9.1955 3.5998 9.19999H3.597C3.46749 9.19584 3.3389 9.22323 3.22232 9.27981C3.10575 9.3364 3.00467 9.42047 2.9278 9.52479Z" fill="#02164F"/>
</svg>
