<svg width="24" height="24" viewBox="0 0 24 24" fill="none" xmlns="http://www.w3.org/2000/svg">
<path d="M21 1.5C21.3978 1.5 21.7794 1.65804 22.0607 1.93934C22.342 2.22064 22.5 2.60218 22.5 3V21C22.5 21.3978 22.342 21.7794 22.0607 22.0607C21.7794 22.342 21.3978 22.5 21 22.5H3C2.60218 22.5 2.22064 22.342 1.93934 22.0607C1.65804 21.7794 1.5 21.3978 1.5 21V3C1.5 2.60218 1.65804 2.22064 1.93934 1.93934C2.22064 1.65804 2.60218 1.5 3 1.5H21ZM3 0C2.20435 0 1.44129 0.316071 0.87868 0.87868C0.316071 1.44129 0 2.20435 0 3L0 21C0 21.7956 0.316071 22.5587 0.87868 23.1213C1.44129 23.6839 2.20435 24 3 24H21C21.7956 24 22.5587 23.6839 23.1213 23.1213C23.6839 22.5587 24 21.7956 24 21V3C24 2.20435 23.6839 1.44129 23.1213 0.87868C22.5587 0.316071 21.7956 0 21 0L3 0Z" fill="#02164F"/>
<path d="M10.2814 6.969C10.3512 7.03867 10.4066 7.12143 10.4444 7.21255C10.4822 7.30366 10.5017 7.40135 10.5017 7.5C10.5017 7.59865 10.4822 7.69633 10.4444 7.78745C10.4066 7.87857 10.3512 7.96133 10.2814 8.031L6.31086 12L10.2814 15.969C10.4222 16.1098 10.5013 16.3008 10.5013 16.5C10.5013 16.6992 10.4222 16.8902 10.2814 17.031C10.1405 17.1718 9.94953 17.2509 9.75036 17.2509C9.5512 17.2509 9.36019 17.1718 9.21936 17.031L4.71936 12.531C4.64952 12.4613 4.59411 12.3786 4.5563 12.2874C4.51849 12.1963 4.49902 12.0986 4.49902 12C4.49902 11.9013 4.51849 11.8037 4.5563 11.7125C4.59411 11.6214 4.64952 11.5387 4.71936 11.469L9.21936 6.969C9.28903 6.89915 9.3718 6.84374 9.46291 6.80593C9.55403 6.76812 9.65171 6.74866 9.75036 6.74866C9.84901 6.74866 9.9467 6.76812 10.0378 6.80593C10.1289 6.84374 10.2117 6.89915 10.2814 6.969ZM13.7194 6.969C13.6495 7.03867 13.5941 7.12143 13.5563 7.21255C13.5185 7.30366 13.499 7.40135 13.499 7.5C13.499 7.59865 13.5185 7.69633 13.5563 7.78745C13.5941 7.87857 13.6495 7.96133 13.7194 8.031L17.6899 12L13.7194 15.969C13.5785 16.1098 13.4994 16.3008 13.4994 16.5C13.4994 16.6992 13.5785 16.8902 13.7194 17.031C13.8602 17.1718 14.0512 17.2509 14.2504 17.2509C14.4495 17.2509 14.6405 17.1718 14.7814 17.031L19.2814 12.531C19.3512 12.4613 19.4066 12.3786 19.4444 12.2874C19.4822 12.1963 19.5017 12.0986 19.5017 12C19.5017 11.9013 19.4822 11.8037 19.4444 11.7125C19.4066 11.6214 19.3512 11.5387 19.2814 11.469L14.7814 6.969C14.7117 6.89915 14.6289 6.84374 14.5378 6.80593C14.4467 6.76812 14.349 6.74866 14.2504 6.74866C14.1517 6.74866 14.054 6.76812 13.9629 6.80593C13.8718 6.84374 13.789 6.89915 13.7194 6.969Z" fill="#02164F"/>
</svg>
