<svg width="100" height="100" viewBox="0 0 100 100" fill="none" xmlns="http://www.w3.org/2000/svg">
<mask id="path-1-inside-1_1_3051" fill="white">
<path d="M100 50C100 77.6142 77.6142 100 50 100C22.3858 100 0 77.6142 0 50C0 22.3858 22.3858 0 50 0C77.6142 0 100 22.3858 100 50ZM5 50C5 74.8528 25.1472 95 50 95C74.8528 95 95 74.8528 95 50C95 25.1472 74.8528 5 50 5C25.1472 5 5 25.1472 5 50Z"/>
</mask>
<path d="M100 50C100 77.6142 77.6142 100 50 100C22.3858 100 0 77.6142 0 50C0 22.3858 22.3858 0 50 0C77.6142 0 100 22.3858 100 50ZM5 50C5 74.8528 25.1472 95 50 95C74.8528 95 95 74.8528 95 50C95 25.1472 74.8528 5 50 5C25.1472 5 5 25.1472 5 50Z" stroke="url(#paint0_angular_1_3051)" stroke-width="7.5" mask="url(#path-1-inside-1_1_3051)"/>
<defs>
<radialGradient id="paint0_angular_1_3051" cx="0" cy="0" r="1" gradientUnits="userSpaceOnUse" gradientTransform="translate(50 50) scale(49.7093 50)">
<stop stop-color="#41CFD5"/>
<stop offset="0.505" stop-color="#407ADA" stop-opacity="0.495"/>
<stop offset="1" stop-color="#407ADA" stop-opacity="0"/>
</radialGradient>
</defs>
</svg>
