<svg width="100" height="100" viewBox="0 0 100 100" fill="none" xmlns="http://www.w3.org/2000/svg">
<circle cx="50" cy="50" r="48.125" fill="white" stroke="url(#paint0_radial_71_563)" stroke-width="3.75"/>
<g clip-path="url(#clip0_71_563)">
<path d="M64.5833 46.8752L69.7917 56.2502L64.5833 57.2918V63.5418H61.4583L55.2083 62.5002L54.1667 69.7918H38.5417L36.4583 58.9783C33.25 55.9408 31.25 51.6418 31.25 46.8752C31.25 37.67 38.7115 30.2085 47.9167 30.2085C57.1219 30.2085 64.5833 37.67 64.5833 46.8752Z" stroke="url(#paint1_radial_71_563)" stroke-width="3.5" stroke-linecap="round" stroke-linejoin="round"/>
<path d="M42.709 44.7918C42.709 43.7617 43.0144 42.7547 43.5867 41.8982C44.159 41.0417 44.9725 40.3742 45.9242 39.98C46.8759 39.5858 47.9231 39.4826 48.9334 39.6836C49.9437 39.8845 50.8718 40.3806 51.6002 41.109C52.3286 41.8374 52.8246 42.7654 53.0256 43.7757C53.2265 44.7861 53.1234 45.8333 52.7292 46.785C52.335 47.7367 51.6674 48.5501 50.8109 49.1224C49.9544 49.6947 48.9474 50.0002 47.9173 50.0002V53.1252M47.9173 59.3752V60.4168" stroke="url(#paint2_radial_71_563)" stroke-width="3.5" stroke-linecap="round" stroke-linejoin="round"/>
</g>
<defs>
<radialGradient id="paint0_radial_71_563" cx="0" cy="0" r="1" gradientUnits="userSpaceOnUse" gradientTransform="translate(-0.290709 50) scale(100 2207.31)">
<stop stop-color="#41CFD5"/>
<stop offset="1" stop-color="#407ADA"/>
</radialGradient>
<radialGradient id="paint1_radial_71_563" cx="0" cy="0" r="1" gradientUnits="userSpaceOnUse" gradientTransform="translate(31.138 50.0002) scale(38.5417 873.729)">
<stop stop-color="#41CFD5"/>
<stop offset="1" stop-color="#407ADA"/>
</radialGradient>
<radialGradient id="paint2_radial_71_563" cx="0" cy="0" r="1" gradientUnits="userSpaceOnUse" gradientTransform="translate(42.6787 50.0002) scale(10.4167 459.857)">
<stop stop-color="#41CFD5"/>
<stop offset="1" stop-color="#407ADA"/>
</radialGradient>
<clipPath id="clip0_71_563">
<rect width="50" height="50" fill="white" transform="translate(25 25)"/>
</clipPath>
</defs>
</svg>
