<svg width="24" height="22" viewBox="0 0 24 22" fill="none" xmlns="http://www.w3.org/2000/svg">
<path d="M23.1562 17.7812H7.1875C7.06719 17.7812 6.96875 17.8797 6.96875 18V19.5312C6.96875 19.6516 7.06719 19.75 7.1875 19.75H23.1562C23.2766 19.75 23.375 19.6516 23.375 19.5312V18C23.375 17.8797 23.2766 17.7812 23.1562 17.7812ZM23.1562 2.25H7.1875C7.06719 2.25 6.96875 2.34844 6.96875 2.46875V4C6.96875 4.12031 7.06719 4.21875 7.1875 4.21875H23.1562C23.2766 4.21875 23.375 4.12031 23.375 4V2.46875C23.375 2.34844 23.2766 2.25 23.1562 2.25ZM23.1562 10.0156H7.1875C7.06719 10.0156 6.96875 10.1141 6.96875 10.2344V11.7656C6.96875 11.8859 7.06719 11.9844 7.1875 11.9844H23.1562C23.2766 11.9844 23.375 11.8859 23.375 11.7656V10.2344C23.375 10.1141 23.2766 10.0156 23.1562 10.0156ZM3.90625 16.4688H0.734375C0.674219 16.4688 0.625 16.518 0.625 16.5781V17.5078C0.625 17.568 0.674219 17.6172 0.734375 17.6172H2.71406V18.1777H1.73789C1.67773 18.1777 1.62852 18.227 1.62852 18.2871V19.2168C1.62852 19.277 1.67773 19.3262 1.73789 19.3262H2.71406V19.9141H0.734375C0.674219 19.9141 0.625 19.9633 0.625 20.0234V20.9531C0.625 21.0133 0.674219 21.0625 0.734375 21.0625H3.90625C3.96641 21.0625 4.01562 21.0133 4.01562 20.9531V16.5781C4.01562 16.518 3.96641 16.4688 3.90625 16.4688ZM0.734375 2.14062H1.77344V5.42188C1.77344 5.48203 1.82266 5.53125 1.88281 5.53125H2.97656C3.03672 5.53125 3.08594 5.48203 3.08594 5.42188V1.15625C3.08594 1.03594 2.9875 0.9375 2.86719 0.9375H0.734375C0.674219 0.9375 0.625 0.986719 0.625 1.04688V2.03125C0.625 2.09141 0.674219 2.14062 0.734375 2.14062ZM3.90625 8.70312H0.734375C0.674219 8.70312 0.625 8.75234 0.625 8.8125V9.79688C0.625 9.85703 0.674219 9.90625 0.734375 9.90625H2.60469L0.682422 12.0309C0.646166 12.0716 0.625782 12.124 0.625 12.1785V13.1875C0.625 13.2477 0.674219 13.2969 0.734375 13.2969H3.90625C3.96641 13.2969 4.01562 13.2477 4.01562 13.1875V12.2031C4.01562 12.143 3.96641 12.0938 3.90625 12.0938H2.03594L3.9582 9.96914C3.99446 9.92842 4.01484 9.876 4.01562 9.82148V8.8125C4.01562 8.75234 3.96641 8.70312 3.90625 8.70312Z" fill="#02164F"/>
</svg>
